<svg xmlns="http://www.w3.org/2000/svg" version="1.1" xmlns:xlink="http://www.w3.org/1999/xlink" viewBox="0 0 200 200"><rect width="200" height="200" fill="url('#gradient')"></rect><defs><linearGradient id="gradient" gradientTransform="rotate(45 0.5 0.5)"><stop offset="0%" stop-color="#000000"></stop><stop offset="100%" stop-color="#000000"></stop></linearGradient></defs><g><g fill="#ffffff" transform="matrix(6.903370786516854,0,0,6.903370786516854,5.594643444693489,148.39434649971093)" stroke="#ffffff" stroke-width="0.2"><path d="M12.96-14.22L12.96 0L9.55 0L9.55-5.94L4.50-5.94L4.50 0L1.07 0L1.07-14.22L4.50-14.22L4.50-8.57L9.55-8.57L9.55-14.22L12.96-14.22ZM22.85-14.22L26.28-14.22L26.28-4.91Q26.28-3.33 25.61-2.17Q24.93-1.02 23.67-0.41Q22.41 0.20 20.69 0.20L20.69 0.20Q18.10 0.20 16.60-1.15Q15.11-2.50 15.08-4.84L15.08-4.84L15.08-14.22L18.53-14.22L18.53-4.78Q18.58-2.44 20.69-2.44L20.69-2.44Q21.76-2.44 22.30-3.03Q22.85-3.61 22.85-4.93L22.85-4.93L22.85-14.22Z"></path></g></g></svg>